<mxfile host="app.diagrams.net" modified="2023-12-19T05:01:11.758Z" agent="Mozilla/5.0 (Macintosh; Intel Mac OS X 10_15_7) AppleWebKit/537.36 (KHTML, like Gecko) Chrome/120.0.0.0 Safari/537.36 Edg/120.0.0.0" etag="ZpOkM_DXtKE_K96t8eLO" version="22.1.11" type="github">
  <diagram name="第 1 页" id="5njQPk8m6PvZPKcmq6S2">
    <mxGraphModel dx="3382" dy="3432" grid="1" gridSize="10" guides="1" tooltips="1" connect="1" arrows="1" fold="1" page="1" pageScale="1" pageWidth="827" pageHeight="1169" math="0" shadow="0">
      <root>
        <mxCell id="0" />
        <mxCell id="1" parent="0" />
        <mxCell id="nWeuy2JTWFIwtImtD7Wy-3" value="admin后台" style="rounded=0;whiteSpace=wrap;html=1;strokeColor=#FF3333;strokeWidth=1.5;align=center;verticalAlign=top;fontFamily=Helvetica;fontSize=12;fontColor=default;fillColor=none;dashed=1;fontStyle=1" vertex="1" parent="1">
          <mxGeometry x="570" y="450" width="220" height="120" as="geometry" />
        </mxCell>
        <mxCell id="nWeuy2JTWFIwtImtD7Wy-4" value="xyf-api-gateway" style="rounded=0;whiteSpace=wrap;html=1;strokeColor=#FF3333;strokeWidth=1.5;align=center;verticalAlign=top;fontFamily=Helvetica;fontSize=12;fontColor=default;fillColor=none;dashed=1;fontStyle=1" vertex="1" parent="1">
          <mxGeometry x="570" y="240" width="220" height="120" as="geometry" />
        </mxCell>
        <mxCell id="nWeuy2JTWFIwtImtD7Wy-5" value="&lt;b&gt;xyf-flow-system&lt;/b&gt;" style="rounded=0;whiteSpace=wrap;html=1;strokeColor=#FF3333;strokeWidth=1.5;align=center;verticalAlign=top;fontFamily=Helvetica;fontSize=12;fontColor=default;fillColor=none;dashed=1;" vertex="1" parent="1">
          <mxGeometry x="-910" y="-584" width="1200" height="520" as="geometry" />
        </mxCell>
        <mxCell id="nWeuy2JTWFIwtImtD7Wy-6" value="投放报表拉取" style="rounded=1;whiteSpace=wrap;html=1;strokeWidth=1.5;fillColor=#d5e8d4;strokeColor=#82b366;" vertex="1" parent="1">
          <mxGeometry x="-870" y="610" width="120" height="60" as="geometry" />
        </mxCell>
        <mxCell id="nWeuy2JTWFIwtImtD7Wy-50" value="" style="edgeStyle=orthogonalEdgeStyle;shape=connector;rounded=0;orthogonalLoop=1;jettySize=auto;html=1;labelBackgroundColor=default;strokeColor=default;strokeWidth=1.5;align=center;verticalAlign=middle;fontFamily=Helvetica;fontSize=12;fontColor=default;endArrow=classic;" edge="1" parent="1" source="nWeuy2JTWFIwtImtD7Wy-7" target="nWeuy2JTWFIwtImtD7Wy-49">
          <mxGeometry relative="1" as="geometry" />
        </mxCell>
        <mxCell id="nWeuy2JTWFIwtImtD7Wy-51" value="7、注册请求" style="edgeLabel;html=1;align=center;verticalAlign=middle;resizable=0;points=[];fontSize=12;fontFamily=Helvetica;fontColor=default;" vertex="1" connectable="0" parent="nWeuy2JTWFIwtImtD7Wy-50">
          <mxGeometry x="-0.075" y="-1" relative="1" as="geometry">
            <mxPoint as="offset" />
          </mxGeometry>
        </mxCell>
        <mxCell id="nWeuy2JTWFIwtImtD7Wy-7" value="落地页投放" style="rounded=1;whiteSpace=wrap;html=1;strokeWidth=1.5;fillColor=#d5e8d4;strokeColor=#82b366;" vertex="1" parent="1">
          <mxGeometry x="-70" y="320" width="120" height="60" as="geometry" />
        </mxCell>
        <mxCell id="nWeuy2JTWFIwtImtD7Wy-8" value="策略回传系统" style="rounded=1;whiteSpace=wrap;html=1;strokeWidth=1.5;fillColor=#d5e8d4;strokeColor=#82b366;" vertex="1" parent="1">
          <mxGeometry x="620" y="270" width="120" height="60" as="geometry" />
        </mxCell>
        <mxCell id="nWeuy2JTWFIwtImtD7Wy-9" value="价值归因系统" style="rounded=1;whiteSpace=wrap;html=1;strokeWidth=1.5;fillColor=#d5e8d4;strokeColor=#82b366;" vertex="1" parent="1">
          <mxGeometry x="185" y="320" width="120" height="60" as="geometry" />
        </mxCell>
        <mxCell id="nWeuy2JTWFIwtImtD7Wy-10" value="配置后台" style="rounded=1;whiteSpace=wrap;html=1;strokeWidth=1.5;fillColor=#d5e8d4;strokeColor=#82b366;" vertex="1" parent="1">
          <mxGeometry x="620" y="480" width="120" height="60" as="geometry" />
        </mxCell>
        <mxCell id="nWeuy2JTWFIwtImtD7Wy-32" style="edgeStyle=orthogonalEdgeStyle;rounded=0;orthogonalLoop=1;jettySize=auto;html=1;entryX=0;entryY=0.5;entryDx=0;entryDy=0;fontFamily=Helvetica;fontSize=12;fontColor=default;strokeWidth=1.5;" edge="1" parent="1" source="nWeuy2JTWFIwtImtD7Wy-11" target="nWeuy2JTWFIwtImtD7Wy-29">
          <mxGeometry relative="1" as="geometry" />
        </mxCell>
        <mxCell id="nWeuy2JTWFIwtImtD7Wy-37" value="1、人群创建" style="edgeLabel;html=1;align=center;verticalAlign=middle;resizable=0;points=[];fontSize=12;fontFamily=Helvetica;fontColor=default;" vertex="1" connectable="0" parent="nWeuy2JTWFIwtImtD7Wy-32">
          <mxGeometry x="-0.25" y="2" relative="1" as="geometry">
            <mxPoint x="10" y="2" as="offset" />
          </mxGeometry>
        </mxCell>
        <mxCell id="nWeuy2JTWFIwtImtD7Wy-11" value="人群包数据获取" style="rounded=1;whiteSpace=wrap;html=1;strokeWidth=1.5;fillColor=#d5e8d4;strokeColor=#82b366;" vertex="1" parent="1">
          <mxGeometry x="-870" y="320" width="120" height="60" as="geometry" />
        </mxCell>
        <mxCell id="nWeuy2JTWFIwtImtD7Wy-12" value="报表大盘&lt;br&gt;(finbi)" style="rounded=1;whiteSpace=wrap;html=1;strokeWidth=1.5;fillColor=#d5e8d4;strokeColor=#82b366;" vertex="1" parent="1">
          <mxGeometry x="-640" y="610" width="120" height="60" as="geometry" />
        </mxCell>
        <mxCell id="nWeuy2JTWFIwtImtD7Wy-13" value="广告行为数据接收" style="rounded=1;whiteSpace=wrap;html=1;strokeWidth=1.5;fillColor=#d5e8d4;strokeColor=#82b366;" vertex="1" parent="1">
          <mxGeometry x="-350" y="370" width="120" height="60" as="geometry" />
        </mxCell>
        <mxCell id="nWeuy2JTWFIwtImtD7Wy-16" value="" style="rounded=0;whiteSpace=wrap;html=1;strokeColor=#FF3333;strokeWidth=1.5;align=center;verticalAlign=middle;fontFamily=Helvetica;fontSize=12;fontColor=default;fillColor=none;dashed=1;" vertex="1" parent="1">
          <mxGeometry x="-1500" y="-710" width="390" height="210" as="geometry" />
        </mxCell>
        <mxCell id="nWeuy2JTWFIwtImtD7Wy-17" value="人群包投放dmp策略系统" style="rounded=1;whiteSpace=wrap;html=1;strokeWidth=1.5;fillColor=#f8cecc;strokeColor=#b85450;" vertex="1" parent="1">
          <mxGeometry x="-1450" y="-580" width="120" height="60" as="geometry" />
        </mxCell>
        <mxCell id="nWeuy2JTWFIwtImtD7Wy-18" value="信息流管理后台" style="rounded=1;whiteSpace=wrap;html=1;strokeWidth=1.5;fillColor=#f8cecc;strokeColor=#b85450;" vertex="1" parent="1">
          <mxGeometry x="-1323" y="-957" width="120" height="60" as="geometry" />
        </mxCell>
        <mxCell id="nWeuy2JTWFIwtImtD7Wy-19" value="rta系统" style="rounded=1;whiteSpace=wrap;html=1;strokeWidth=1.5;fillColor=#f8cecc;strokeColor=#b85450;" vertex="1" parent="1">
          <mxGeometry x="-920" y="-870" width="120" height="60" as="geometry" />
        </mxCell>
        <mxCell id="nWeuy2JTWFIwtImtD7Wy-20" value="人群圈选服务" style="rounded=1;whiteSpace=wrap;html=1;strokeWidth=1.5;fillColor=#f8cecc;strokeColor=#b85450;" vertex="1" parent="1">
          <mxGeometry x="-1450" y="-700" width="120" height="60" as="geometry" />
        </mxCell>
        <mxCell id="nWeuy2JTWFIwtImtD7Wy-21" value="策略配置" style="rounded=1;whiteSpace=wrap;html=1;strokeWidth=1.5;fillColor=#f8cecc;strokeColor=#b85450;" vertex="1" parent="1">
          <mxGeometry x="-1130" y="-850" width="120" height="60" as="geometry" />
        </mxCell>
        <mxCell id="nWeuy2JTWFIwtImtD7Wy-22" value="广告计划管理后台" style="rounded=1;whiteSpace=wrap;html=1;strokeWidth=1.5;fillColor=#f8cecc;strokeColor=#b85450;" vertex="1" parent="1">
          <mxGeometry x="-1130" y="-1070" width="120" height="60" as="geometry" />
        </mxCell>
        <mxCell id="nWeuy2JTWFIwtImtD7Wy-23" value="人群圈选配置" style="rounded=1;whiteSpace=wrap;html=1;strokeWidth=1.5;fillColor=#f8cecc;strokeColor=#b85450;" vertex="1" parent="1">
          <mxGeometry x="-1130" y="-960" width="120" height="60" as="geometry" />
        </mxCell>
        <mxCell id="nWeuy2JTWFIwtImtD7Wy-24" value="报表大盘" style="rounded=1;whiteSpace=wrap;html=1;strokeWidth=1.5;fillColor=#f8cecc;strokeColor=#b85450;" vertex="1" parent="1">
          <mxGeometry x="-1450" y="-420" width="120" height="60" as="geometry" />
        </mxCell>
        <mxCell id="nWeuy2JTWFIwtImtD7Wy-25" value="告警中心" style="rounded=1;whiteSpace=wrap;html=1;strokeWidth=1.5;fillColor=#f8cecc;strokeColor=#b85450;" vertex="1" parent="1">
          <mxGeometry x="-1450" y="-300" width="120" height="60" as="geometry" />
        </mxCell>
        <mxCell id="nWeuy2JTWFIwtImtD7Wy-26" value="广告代理商上传素材平台" style="rounded=1;whiteSpace=wrap;html=1;strokeWidth=1.5;fillColor=#f8cecc;strokeColor=#b85450;" vertex="1" parent="1">
          <mxGeometry x="-1130" y="-1180" width="120" height="60" as="geometry" />
        </mxCell>
        <mxCell id="nWeuy2JTWFIwtImtD7Wy-27" value="" style="rounded=0;whiteSpace=wrap;html=1;strokeColor=#FF3333;strokeWidth=1.5;align=center;verticalAlign=middle;fontFamily=Helvetica;fontSize=12;fontColor=default;fillColor=none;dashed=1;" vertex="1" parent="1">
          <mxGeometry x="-1350" y="-1087" width="400" height="320" as="geometry" />
        </mxCell>
        <mxCell id="nWeuy2JTWFIwtImtD7Wy-28" value="标签系统" style="rounded=1;whiteSpace=wrap;html=1;strokeWidth=1.5;fillColor=#f8cecc;strokeColor=#b85450;" vertex="1" parent="1">
          <mxGeometry x="-1270" y="-700" width="120" height="60" as="geometry" />
        </mxCell>
        <mxCell id="nWeuy2JTWFIwtImtD7Wy-35" style="edgeStyle=orthogonalEdgeStyle;shape=connector;rounded=1;orthogonalLoop=1;jettySize=auto;html=1;entryX=0;entryY=0.5;entryDx=0;entryDy=0;labelBackgroundColor=default;strokeColor=default;strokeWidth=1.5;align=center;verticalAlign=middle;fontFamily=Helvetica;fontSize=12;fontColor=default;endArrow=classic;" edge="1" parent="1" source="nWeuy2JTWFIwtImtD7Wy-29" target="nWeuy2JTWFIwtImtD7Wy-30">
          <mxGeometry relative="1" as="geometry">
            <Array as="points">
              <mxPoint x="-610" y="410" />
              <mxPoint x="-890" y="410" />
              <mxPoint x="-890" y="470" />
            </Array>
          </mxGeometry>
        </mxCell>
        <mxCell id="nWeuy2JTWFIwtImtD7Wy-38" value="2、人群上传" style="edgeLabel;html=1;align=center;verticalAlign=middle;resizable=0;points=[];fontSize=12;fontFamily=Helvetica;fontColor=default;" vertex="1" connectable="0" parent="nWeuy2JTWFIwtImtD7Wy-35">
          <mxGeometry x="-0.0256" relative="1" as="geometry">
            <mxPoint as="offset" />
          </mxGeometry>
        </mxCell>
        <mxCell id="nWeuy2JTWFIwtImtD7Wy-29" value="人群包创建" style="rounded=1;whiteSpace=wrap;html=1;strokeWidth=1.5;fillColor=#d5e8d4;strokeColor=#82b366;" vertex="1" parent="1">
          <mxGeometry x="-640" y="320" width="120" height="60" as="geometry" />
        </mxCell>
        <mxCell id="nWeuy2JTWFIwtImtD7Wy-36" style="edgeStyle=orthogonalEdgeStyle;shape=connector;rounded=0;orthogonalLoop=1;jettySize=auto;html=1;entryX=0;entryY=0.5;entryDx=0;entryDy=0;labelBackgroundColor=default;strokeColor=default;strokeWidth=1.5;align=center;verticalAlign=middle;fontFamily=Helvetica;fontSize=12;fontColor=default;endArrow=classic;" edge="1" parent="1" source="nWeuy2JTWFIwtImtD7Wy-30" target="nWeuy2JTWFIwtImtD7Wy-31">
          <mxGeometry relative="1" as="geometry" />
        </mxCell>
        <mxCell id="nWeuy2JTWFIwtImtD7Wy-39" value="3、数据记录" style="edgeLabel;html=1;align=center;verticalAlign=middle;resizable=0;points=[];fontSize=12;fontFamily=Helvetica;fontColor=default;" vertex="1" connectable="0" parent="nWeuy2JTWFIwtImtD7Wy-36">
          <mxGeometry x="-0.0727" y="5" relative="1" as="geometry">
            <mxPoint y="4" as="offset" />
          </mxGeometry>
        </mxCell>
        <mxCell id="nWeuy2JTWFIwtImtD7Wy-30" value="人群包上传" style="rounded=1;whiteSpace=wrap;html=1;strokeWidth=1.5;fillColor=#d5e8d4;strokeColor=#82b366;" vertex="1" parent="1">
          <mxGeometry x="-870" y="440" width="120" height="60" as="geometry" />
        </mxCell>
        <mxCell id="nWeuy2JTWFIwtImtD7Wy-31" value="上传数据记录" style="rounded=1;whiteSpace=wrap;html=1;strokeWidth=1.5;fillColor=#d5e8d4;strokeColor=#82b366;" vertex="1" parent="1">
          <mxGeometry x="-640" y="440" width="120" height="60" as="geometry" />
        </mxCell>
        <mxCell id="nWeuy2JTWFIwtImtD7Wy-41" style="edgeStyle=orthogonalEdgeStyle;shape=connector;rounded=0;orthogonalLoop=1;jettySize=auto;html=1;entryX=0.5;entryY=0;entryDx=0;entryDy=0;labelBackgroundColor=default;strokeColor=default;strokeWidth=1.5;align=center;verticalAlign=middle;fontFamily=Helvetica;fontSize=12;fontColor=default;endArrow=classic;" edge="1" parent="1" source="nWeuy2JTWFIwtImtD7Wy-40" target="nWeuy2JTWFIwtImtD7Wy-13">
          <mxGeometry relative="1" as="geometry" />
        </mxCell>
        <mxCell id="nWeuy2JTWFIwtImtD7Wy-42" value="4、广告行为数据回传" style="edgeLabel;html=1;align=center;verticalAlign=middle;resizable=0;points=[];fontSize=12;fontFamily=Helvetica;fontColor=default;" vertex="1" connectable="0" parent="nWeuy2JTWFIwtImtD7Wy-41">
          <mxGeometry x="0.05" y="1" relative="1" as="geometry">
            <mxPoint as="offset" />
          </mxGeometry>
        </mxCell>
        <mxCell id="nWeuy2JTWFIwtImtD7Wy-40" value="抖音/百度.......平台" style="rounded=1;whiteSpace=wrap;html=1;strokeWidth=1.5;fillColor=#e1d5e7;strokeColor=#9673a6;" vertex="1" parent="1">
          <mxGeometry x="-350" y="205" width="120" height="60" as="geometry" />
        </mxCell>
        <mxCell id="nWeuy2JTWFIwtImtD7Wy-43" value="广告行为数据服务" style="rounded=1;whiteSpace=wrap;html=1;strokeWidth=1.5;fillColor=#d5e8d4;strokeColor=#82b366;" vertex="1" parent="1">
          <mxGeometry x="-350" y="620" width="120" height="60" as="geometry" />
        </mxCell>
        <mxCell id="nWeuy2JTWFIwtImtD7Wy-46" style="edgeStyle=orthogonalEdgeStyle;shape=connector;rounded=0;orthogonalLoop=1;jettySize=auto;html=1;entryX=0.5;entryY=0;entryDx=0;entryDy=0;labelBackgroundColor=default;strokeColor=default;strokeWidth=1.5;align=center;verticalAlign=middle;fontFamily=Helvetica;fontSize=12;fontColor=default;endArrow=classic;" edge="1" parent="1" source="nWeuy2JTWFIwtImtD7Wy-44" target="nWeuy2JTWFIwtImtD7Wy-43">
          <mxGeometry relative="1" as="geometry" />
        </mxCell>
        <mxCell id="nWeuy2JTWFIwtImtD7Wy-48" value="6、落mongodb，按月分表，提供服务" style="edgeLabel;html=1;align=center;verticalAlign=middle;resizable=0;points=[];fontSize=12;fontFamily=Helvetica;fontColor=default;" vertex="1" connectable="0" parent="nWeuy2JTWFIwtImtD7Wy-46">
          <mxGeometry y="-1" relative="1" as="geometry">
            <mxPoint as="offset" />
          </mxGeometry>
        </mxCell>
        <mxCell id="nWeuy2JTWFIwtImtD7Wy-44" value="rabbitmq" style="strokeWidth=2;html=1;shape=mxgraph.flowchart.direct_data;whiteSpace=wrap;rounded=1;strokeColor=#82b366;align=center;verticalAlign=middle;fontFamily=Helvetica;fontSize=12;fontColor=default;fillColor=#d5e8d4;" vertex="1" parent="1">
          <mxGeometry x="-340" y="500" width="100" height="60" as="geometry" />
        </mxCell>
        <mxCell id="nWeuy2JTWFIwtImtD7Wy-45" style="edgeStyle=orthogonalEdgeStyle;shape=connector;rounded=0;orthogonalLoop=1;jettySize=auto;html=1;entryX=0.5;entryY=0;entryDx=0;entryDy=0;entryPerimeter=0;labelBackgroundColor=default;strokeColor=default;strokeWidth=1.5;align=center;verticalAlign=middle;fontFamily=Helvetica;fontSize=12;fontColor=default;endArrow=classic;" edge="1" parent="1" source="nWeuy2JTWFIwtImtD7Wy-13" target="nWeuy2JTWFIwtImtD7Wy-44">
          <mxGeometry relative="1" as="geometry" />
        </mxCell>
        <mxCell id="nWeuy2JTWFIwtImtD7Wy-47" value="5、入队列" style="edgeLabel;html=1;align=center;verticalAlign=middle;resizable=0;points=[];fontSize=12;fontFamily=Helvetica;fontColor=default;" vertex="1" connectable="0" parent="nWeuy2JTWFIwtImtD7Wy-45">
          <mxGeometry x="-0.3143" y="1" relative="1" as="geometry">
            <mxPoint x="-1" y="6" as="offset" />
          </mxGeometry>
        </mxCell>
        <mxCell id="nWeuy2JTWFIwtImtD7Wy-53" value="" style="edgeStyle=orthogonalEdgeStyle;shape=connector;rounded=0;orthogonalLoop=1;jettySize=auto;html=1;labelBackgroundColor=default;strokeColor=default;strokeWidth=1.5;align=center;verticalAlign=middle;fontFamily=Helvetica;fontSize=12;fontColor=default;endArrow=classic;" edge="1" parent="1" source="nWeuy2JTWFIwtImtD7Wy-49" target="nWeuy2JTWFIwtImtD7Wy-52">
          <mxGeometry relative="1" as="geometry" />
        </mxCell>
        <mxCell id="nWeuy2JTWFIwtImtD7Wy-54" value="8、用户注册" style="edgeLabel;html=1;align=center;verticalAlign=middle;resizable=0;points=[];fontSize=12;fontFamily=Helvetica;fontColor=default;" vertex="1" connectable="0" parent="nWeuy2JTWFIwtImtD7Wy-53">
          <mxGeometry x="-0.08" y="3" relative="1" as="geometry">
            <mxPoint as="offset" />
          </mxGeometry>
        </mxCell>
        <mxCell id="nWeuy2JTWFIwtImtD7Wy-49" value="请求cis、上报、回传等系统" style="rounded=1;whiteSpace=wrap;html=1;strokeWidth=1.5;fillColor=#d5e8d4;strokeColor=#82b366;" vertex="1" parent="1">
          <mxGeometry x="-70" y="460" width="120" height="60" as="geometry" />
        </mxCell>
        <mxCell id="nWeuy2JTWFIwtImtD7Wy-52" value="注册数据存储，含广告数据" style="rounded=1;whiteSpace=wrap;html=1;strokeWidth=1.5;fillColor=#d5e8d4;strokeColor=#82b366;" vertex="1" parent="1">
          <mxGeometry x="-70" y="580" width="120" height="60" as="geometry" />
        </mxCell>
        <mxCell id="nWeuy2JTWFIwtImtD7Wy-58" style="edgeStyle=orthogonalEdgeStyle;shape=connector;rounded=1;orthogonalLoop=1;jettySize=auto;html=1;entryX=0.5;entryY=0;entryDx=0;entryDy=0;labelBackgroundColor=default;strokeColor=default;strokeWidth=1.5;align=center;verticalAlign=middle;fontFamily=Helvetica;fontSize=12;fontColor=default;endArrow=classic;" edge="1" parent="1" source="nWeuy2JTWFIwtImtD7Wy-55" target="nWeuy2JTWFIwtImtD7Wy-9">
          <mxGeometry relative="1" as="geometry">
            <Array as="points">
              <mxPoint x="105" y="290" />
              <mxPoint x="245" y="290" />
            </Array>
          </mxGeometry>
        </mxCell>
        <mxCell id="nWeuy2JTWFIwtImtD7Wy-55" value="注册" style="rounded=1;whiteSpace=wrap;html=1;strokeWidth=1.5;fillColor=#d5e8d4;strokeColor=#82b366;" vertex="1" parent="1">
          <mxGeometry x="60" y="220" width="90" height="30" as="geometry" />
        </mxCell>
        <mxCell id="nWeuy2JTWFIwtImtD7Wy-59" style="edgeStyle=orthogonalEdgeStyle;shape=connector;rounded=0;orthogonalLoop=1;jettySize=auto;html=1;entryX=0.5;entryY=0;entryDx=0;entryDy=0;labelBackgroundColor=default;strokeColor=default;strokeWidth=1.5;align=center;verticalAlign=middle;fontFamily=Helvetica;fontSize=12;fontColor=default;endArrow=classic;" edge="1" parent="1" source="nWeuy2JTWFIwtImtD7Wy-56" target="nWeuy2JTWFIwtImtD7Wy-9">
          <mxGeometry relative="1" as="geometry" />
        </mxCell>
        <mxCell id="nWeuy2JTWFIwtImtD7Wy-56" value="启动" style="rounded=1;whiteSpace=wrap;html=1;strokeWidth=1.5;fillColor=#d5e8d4;strokeColor=#82b366;" vertex="1" parent="1">
          <mxGeometry x="200" y="220" width="90" height="30" as="geometry" />
        </mxCell>
        <mxCell id="nWeuy2JTWFIwtImtD7Wy-60" style="edgeStyle=orthogonalEdgeStyle;shape=connector;rounded=1;orthogonalLoop=1;jettySize=auto;html=1;entryX=0.5;entryY=0;entryDx=0;entryDy=0;labelBackgroundColor=default;strokeColor=default;strokeWidth=1.5;align=center;verticalAlign=middle;fontFamily=Helvetica;fontSize=12;fontColor=default;endArrow=classic;" edge="1" parent="1" source="nWeuy2JTWFIwtImtD7Wy-57" target="nWeuy2JTWFIwtImtD7Wy-9">
          <mxGeometry relative="1" as="geometry">
            <Array as="points">
              <mxPoint x="395" y="290" />
              <mxPoint x="245" y="290" />
            </Array>
          </mxGeometry>
        </mxCell>
        <mxCell id="nWeuy2JTWFIwtImtD7Wy-57" value="api渠道激活" style="rounded=1;whiteSpace=wrap;html=1;strokeWidth=1.5;fillColor=#d5e8d4;strokeColor=#82b366;" vertex="1" parent="1">
          <mxGeometry x="350" y="220" width="90" height="30" as="geometry" />
        </mxCell>
      </root>
    </mxGraphModel>
  </diagram>
</mxfile>
